{"title":"A.Cinderella.Story.Once.Upon.a.Song.2011.DVDRip.XVID.AC3.HQ.Hive","uid":6679456,"size":1473310533,"categoryP":"video","categoryS":"movies","magnet":"?xt=urn:btih:ccdbd9a6a32a845a89524bd24af1a8719b858e3b&amp;dn=A.Cinderella.Story.Once.Upon.a.Song.2011.DVDRip.XVID.AC3.HQ.Hive&amp;tr=udp%3A%2F%2Ftracker.openbittorrent.com%3A80&amp;tr=udp%3A%2F%2Fopen.demonii.com%3A1337&amp;tr=udp%3A%2F%2Ftracker.coppersurfer.tk%3A6969&amp;tr=udp%3A%2F%2Fexodus.desync.com%3A6969","seeders":0,"leechers":0,"uploader":"HeroMaster","files":-1,"time":1316146139,"description":"A.Cinderella.Story.Once.Upon.a.Song.2011.DVDRip.XVID.AC3.HQ.Hive-CM8\n\n\nThx Hive\n\nCM8 Doing It Right The First Time :D\n\n\nSource: R1 DVD-R\n\nEncode:\nDVD was very nice, also has imdb vote of 8.0 - looks like a good movie.\nAdded sharpness, rgb, denoise\nenjoy\n\nVideo: 720x400 @bitrate 1800 2pass\nAudio: English AC3 5.1 @384\nSample: yes, included\n\n &lt;a href=&quot;\nhttp://www.imdb.com/title/tt1814614/&quot; rel=&quot;nofollow&quot; target=&quot;_NEW&quot;&gt;\nhttp://www.imdb.com/title/tt1814614/&lt;/a&gt;\n\n\nGeneral\nFormat : AVI\nFormat/Info : Audio Video Interleave\nFile size : 1.35 GiB\nDuration : 1h 28mn\nOverall bit rate : 2 192 Kbps\nWriting application : Nandub v1.0rc2\nWriting library : Nandub build 1853/release\n\nVideo\nID : 0\nFormat : MPEG-4 Visual\nFormat profile : Advanced Simple@L5\nFormat settings, BVOP : 1\nFormat settings, QPel : Yes\nFormat settings, GMC : No warppoints\nFormat settings, Matrix : Default (H.263)\nMuxing mode : Packed bitstream\nCodec ID : XVID\nCodec ID/Hint : XviD\nDuration : 1h 28mn\nBit rate : 1 799 Kbps\nWidth : 720 pixels\nHeight : 400 pixels\nDisplay aspect ratio : 16:9\nFrame rate : 23.976 fps\nColor space : YUV\nChroma subsampling : 4:2:0\nBit depth : 8 bits\nScan type : Progressive\nCompression mode : Lossy\nBits/(Pixel*Frame) : 0.261\nStream size : 1.11 GiB (82%)\nWriting library : XviD 1.2.1 (UTC 2008-12-04)\n\nAudio\nID : 1\nFormat : AC-3\nFormat/Info : Audio Coding 3\nMode extension : CM (complete main)\nCodec ID : 2000\nDuration : 1h 28mn\nBit rate mode : Constant\nBit rate : 384 Kbps\nChannel(s) : 6 channels\nChannel positions : Front: L C R, Side: L R, LFE\nSampling rate : 48.0 KHz\nBit depth : 16 bits\nCompression mode : Lossy\nStream size : 243 MiB (18%)\nAlignment : Split accross interleaves\nInterleave, duration : 42 ms (1.00 video frame)\nInterleave, preload duration : 500 ms\n\n\nPlot:\n\nA modern retelling of the timeless tale of a resourceful and\nbeleaguered young woman whose dreams do come true.\n\n\nCast:\n\nLucy Hale ... Katie Gibbs\nMissi Pyle ... Gail Van Ravensway\nMegan Park ... Beverly Van Ravensway\nFreddie Stroma ... Luke\n\n\nScreens:\n\n &lt;a href=&quot;\nhttp://www.pix2links.com/images/40230611421322202203.png&quot; rel=&quot;nofollow&quot; target=&quot;_NEW&quot;&gt;\nhttp://www.pix2links.com/images/40230611421322202203.png&lt;/a&gt;\n    \t &lt;a href=&quot;\nhttp://www.pix2links.com/images/20475170795440062846.png&quot; rel=&quot;nofollow&quot; target=&quot;_NEW&quot;&gt;\nhttp://www.pix2links.com/images/20475170795440062846.png&lt;/a&gt;\n    \t &lt;a href=&quot;\nhttp://www.pix2links.com/images/23138807486990286641.png&quot; rel=&quot;nofollow&quot; target=&quot;_NEW&quot;&gt;\nhttp://www.pix2links.com/images/23138807486990286641.png&lt;/a&gt;\n\n\nENJOY!","torrent":{"xt":"urn:btih:ccdbd9a6a32a845a89524bd24af1a8719b858e3b","amp;dn":"A.Cinderella.Story.Once.Upon.a.Song.2011.DVDRip.XVID.AC3.HQ.Hive","amp;tr":["udp%3A%2F%2Ftracker.openbittorrent.com%3A80","udp%3A%2F%2Fopen.demonii.com%3A1337","udp%3A%2F%2Ftracker.coppersurfer.tk%3A6969","udp%3A%2F%2Fexodus.desync.com%3A6969"],"infoHash":"ccdbd9a6a32a845a89524bd24af1a8719b858e3b","infoHashBuffer":{"type":"Buffer","data":[204,219,217,166,163,42,132,90,137,82,75,210,74,241,168,113,155,133,142,59]},"announce":[],"urlList":[]}}